<?xml version="1.0" encoding="utf-8"?>
<!-- Generator: Adobe Illustrator 23.0.2, SVG Export Plug-In . SVG Version: 6.00 Build 0)  -->
<svg version="1.1" id="Layer_1" xmlns="http://www.w3.org/2000/svg" xmlns:xlink="http://www.w3.org/1999/xlink" x="0px" y="0px"
	 viewBox="0 0 420 156" style="enable-background:new 0 0 420 156;" xml:space="preserve">
<style type="text/css">
	.st0{fill:#1A1A1A;}
	.st1{fill:#FEBD01;}
	.st2{fill:#FFFFFF;}
</style>
<title>Logo</title>
<desc>Created with Sketch.</desc>
<g>
	<path class="st0" d="M34.9,1.8v7.6c0,1.2-0.7,1.8-1.8,1.8h-9.8V49c0,1.2-0.7,1.8-1.8,1.8h-8c-1.2,0-1.8-0.7-1.8-1.8V11.2H1.8
		C0.7,11.2,0,10.5,0,9.4V1.8C0,0.7,0.7,0,1.8,0h21.4h9.8C34.2,0,34.9,0.7,34.9,1.8z"/>
	<path class="st0" d="M69.8,32.7c0,0.9-0.1,1.8-0.1,2.7c-0.1,1.2-0.9,1.7-2,1.7h-8.9H43.4c1.3,4.3,4.7,6,8.5,6c2,0,4.1-0.7,5.4-1.8
		c0.7-0.6,1.3-0.9,2.3-0.9l7-0.1c1.3,0,2,0.9,1.5,2c-2.8,6.3-8.8,9.6-16.2,9.6C39.7,51.9,32,43.5,32,32.7c0-10.8,8-19.2,19.5-19.2
		C62,13.5,69.8,21.7,69.8,32.7z M58.9,28.8c-1.1-4.1-4.3-5.6-7.5-5.6c-4.1,0-6.9,2-8,5.6H58.9z"/>
	<path class="st0" d="M105.9,28V49c0,1.2-0.7,1.8-1.8,1.8h-7c-1.2,0-1.8-0.7-1.8-1.8v-1c-1.9,2.3-4.8,3.9-9.4,3.9
		c-6.4,0-12-3.8-12-11.3c0-7.6,5.6-11.3,12-11.3c4.6,0,7.4,1.3,9.4,2.8v-3.3c0-3.6-1.5-5.2-4.5-5.2c-2.3,0-3.6,0.9-4.2,2.1
		c-0.4,1-0.8,1.6-1.9,1.6h-7.1c-1.2,0-1.9-0.7-1.8-1.9c0.9-7.8,7.6-11.8,15-11.8C98.8,13.5,105.9,18.2,105.9,28z M95.3,40.5
		c0-2.3-2-3.6-5.5-3.6c-3.3,0-4.9,1.5-4.9,3.6c0,2.1,1.6,3.6,4.9,3.6C93.4,44.2,95.3,42.7,95.3,40.5z"/>
	<path class="st0" d="M150.4,13.5c7.1,0,11.3,4.5,11.3,12.9V49c0,1.2-0.7,1.8-1.8,1.8h-7.3c-1.2,0-1.8-0.7-1.8-1.8V27.3
		c0-2.9-1.7-3.8-3.8-3.8c-2.2,0-4.2,1.1-4.2,4.7V49c0,1.2-0.7,1.8-1.8,1.8h-7.3c-1.2,0-1.8-0.7-1.8-1.8V27.3c0-2.9-1.7-3.8-3.8-3.8
		c-2.2,0-4.2,1.1-4.2,4.7V49c0,1.2-0.7,1.8-1.8,1.8h-7.3c-1.2,0-1.8-0.7-1.8-1.8V16.3c0-1.2,0.7-1.8,1.8-1.8h7.3
		c1.2,0,1.8,0.7,1.8,1.8v1.5c1.7-2.5,4.6-4.3,8.4-4.3c3.7,0,6.6,1.5,8.4,4.3C143,15.3,146,13.5,150.4,13.5L150.4,13.5z"/>
	<path class="st1" d="M206.1,17.4c0,9.7-7.8,17.4-17.8,17.4h-7.6V49c0,1.2-0.7,1.8-1.8,1.8h-8c-1.2,0-1.8-0.7-1.8-1.8V1.8
		c0-1.2,0.7-1.8,1.8-1.8h9.8h7.6C198.3,0,206.1,7.8,206.1,17.4z M194.5,17.4c0-3.7-2.6-6.5-6.2-6.5h-7.6V24h7.6
		C191.9,24,194.5,21.1,194.5,17.4z"/>
	<path class="st1" d="M229.3,13.9c1.2-0.2,1.9,0.6,1.9,1.7v8.6c0,1.2-0.5,1.7-1.5,1.7c-4.1-0.1-8,1.9-8,7.7V49
		c0,1.2-0.7,1.8-1.8,1.8h-7.3c-1.2,0-1.8-0.7-1.8-1.8V16.3c0-1.2,0.7-1.8,1.8-1.8h7.3c1.2,0,1.8,0.7,1.8,1.8v3.9
		C222.8,16.6,225.7,14.5,229.3,13.9L229.3,13.9z"/>
	<path class="st1" d="M233.4,32.7c0-10.8,8.6-19.2,19.3-19.2c10.7,0,19.3,8.4,19.3,19.2c0,10.8-8.6,19.2-19.3,19.2
		C241.9,51.9,233.4,43.5,233.4,32.7z M261,32.7c0-5.2-3.6-8.6-8.4-8.6c-4.7,0-8.4,3.4-8.4,8.6c0,5.2,3.6,8.6,8.4,8.6
		C257.3,41.3,261,37.9,261,32.7z"/>
	<path class="st1" d="M315.3,1.8V49c0,1.2-0.7,1.8-1.8,1.8h-7.3c-1.2,0-1.8-0.7-1.8-1.8v-1.6c-2.4,2.8-6,4.4-10.8,4.4
		c-9.5,0-17.4-8.4-17.4-19.2c0-10.8,7.8-19.2,17.4-19.2c4.9,0,8.4,1.6,10.8,4.4V1.8c0-1.2,0.7-1.8,1.8-1.8h7.3
		C314.7,0,315.3,0.7,315.3,1.8z M304.4,32.7c0-5.4-3.6-8.9-8.6-8.9s-8.6,3.4-8.6,8.9c0,5.4,3.6,8.9,8.6,8.9S304.4,38.1,304.4,32.7z"
		/>
	<path class="st1" d="M323.3,8.4V1.8c0-1.2,0.7-1.8,1.8-1.8h7.3c1.2,0,1.8,0.7,1.8,1.8v6.5c0,1.2-0.7,1.8-1.8,1.8h-7.3
		C324,10.2,323.3,9.5,323.3,8.4z M323.3,49V16.3c0-1.2,0.7-1.8,1.8-1.8h7.3c1.2,0,1.8,0.7,1.8,1.8V49c0,1.2-0.7,1.8-1.8,1.8h-7.3
		C324,50.9,323.3,50.2,323.3,49z"/>
	<path class="st1" d="M377.7,14.5c1.2,0,1.8,0.7,1.8,1.8V49c0,12.2-9.8,17.4-18.7,17.4c-8.9,0-17.2-4.2-18.3-12.9
		c-0.1-1.2,0.7-1.9,1.8-1.9h7.3c1.1,0,1.6,0.6,2,1.6c0.8,2.2,3.2,3.6,7.2,3.6c4.9,0,8.1-2.6,8.1-7.8v-3.3c-2.4,2.9-6.1,4.7-11.1,4.7
		c-9.5,0-17.4-8.4-17.4-18.5c0-10.1,7.8-18.5,17.4-18.5c5.1,0,8.7,1.8,11.1,4.7v-1.8c0-1.2,0.7-1.8,1.8-1.8L377.7,14.5L377.7,14.5z
		 M368.9,32c0-5-3.6-8.4-8.8-8.4c-5.2,0-8.8,3.4-8.8,8.4s3.6,8.4,8.8,8.4C365.2,40.4,368.9,37,368.9,32z"/>
	<path class="st1" d="M410.5,14.5h7.8c1.3,0,2,0.7,1.5,2l-15.7,47.4c-0.3,1-1.1,1.5-2.1,1.5h-7.8c-1.3,0-2-0.7-1.5-2l4.4-13.1
		l-12.8-33.6c-0.4-1.2,0.1-2.1,1.5-2.1h7.8c1,0,1.7,0.5,2,1.5l6.9,19.3l6-19.2C408.7,15,409.5,14.5,410.5,14.5z"/>
</g>
<g>
	<path class="st2" d="M34.9,82.3v7.6c0,1.2-0.7,1.8-1.8,1.8h-9.8v37.9c0,1.2-0.7,1.8-1.8,1.8h-8c-1.2,0-1.8-0.7-1.8-1.8V91.6H1.8
		C0.7,91.6,0,91,0,89.8v-7.6c0-1.2,0.7-1.8,1.8-1.8h21.4h9.8C34.2,80.4,34.9,81.1,34.9,82.3z"/>
	<path class="st2" d="M69.8,113.1c0,0.9-0.1,1.8-0.1,2.7c-0.1,1.2-0.9,1.7-2,1.7h-8.9H43.4c1.3,4.3,4.7,6,8.5,6c2,0,4.1-0.7,5.4-1.8
		c0.7-0.6,1.3-0.9,2.3-0.9l7-0.1c1.3,0,2,0.9,1.5,2c-2.8,6.3-8.8,9.6-16.2,9.6c-12.1,0-19.8-8.4-19.8-19.2C32,102.3,40,94,51.4,94
		C62,94,69.8,102.2,69.8,113.1z M58.9,109.2c-1.1-4.1-4.3-5.6-7.5-5.6c-4.1,0-6.9,2-8,5.6H58.9z"/>
	<path class="st2" d="M105.9,108.4v21.1c0,1.2-0.7,1.8-1.8,1.8h-7c-1.2,0-1.8-0.7-1.8-1.8v-1c-1.9,2.3-4.8,3.9-9.4,3.9
		c-6.4,0-12-3.8-12-11.3c0-7.6,5.6-11.3,12-11.3c4.6,0,7.4,1.3,9.4,2.8v-3.3c0-3.6-1.5-5.2-4.5-5.2c-2.3,0-3.6,0.9-4.2,2.1
		c-0.4,1-0.8,1.6-1.9,1.6h-7.1c-1.2,0-1.9-0.7-1.8-1.9C76.7,98,83.4,94,90.8,94C98.8,94,105.9,98.6,105.9,108.4z M95.3,121
		c0-2.3-2-3.6-5.5-3.6c-3.3,0-4.9,1.5-4.9,3.6c0,2.1,1.6,3.6,4.9,3.6C93.4,124.6,95.3,123.1,95.3,121z"/>
	<path class="st2" d="M150.4,94c7.1,0,11.3,4.5,11.3,12.9v22.7c0,1.2-0.7,1.8-1.8,1.8h-7.3c-1.2,0-1.8-0.7-1.8-1.8v-21.7
		c0-2.9-1.7-3.8-3.8-3.8c-2.2,0-4.2,1.1-4.2,4.7v20.9c0,1.2-0.7,1.8-1.8,1.8h-7.3c-1.2,0-1.8-0.7-1.8-1.8v-21.7
		c0-2.9-1.7-3.8-3.8-3.8c-2.2,0-4.2,1.1-4.2,4.7v20.9c0,1.2-0.7,1.8-1.8,1.8h-7.3c-1.2,0-1.8-0.7-1.8-1.8V96.8
		c0-1.2,0.7-1.8,1.8-1.8h7.3c1.2,0,1.8,0.7,1.8,1.8v1.5c1.7-2.5,4.6-4.3,8.4-4.3c3.7,0,6.6,1.5,8.4,4.3C143,95.8,146,94,150.4,94
		L150.4,94z"/>
	<path class="st1" d="M206.1,97.9c0,9.7-7.8,17.4-17.8,17.4h-7.6v14.2c0,1.2-0.7,1.8-1.8,1.8h-8c-1.2,0-1.8-0.7-1.8-1.8V82.3
		c0-1.2,0.7-1.8,1.8-1.8h9.8h7.6C198.3,80.4,206.1,88.2,206.1,97.9z M194.5,97.9c0-3.7-2.6-6.5-6.2-6.5h-7.6v13.1h7.6
		C191.9,104.4,194.5,101.6,194.5,97.9z"/>
	<path class="st1" d="M229.3,94.4c1.2-0.2,1.9,0.6,1.9,1.7v8.6c0,1.2-0.5,1.7-1.5,1.7c-4.1-0.1-8,1.9-8,7.7v15.3
		c0,1.2-0.7,1.8-1.8,1.8h-7.3c-1.2,0-1.8-0.7-1.8-1.8V96.8c0-1.2,0.7-1.8,1.8-1.8h7.3c1.2,0,1.8,0.7,1.8,1.8v3.9
		C222.8,97.1,225.7,94.9,229.3,94.4L229.3,94.4z"/>
	<path class="st1" d="M233.4,113.1c0-10.8,8.6-19.2,19.3-19.2c10.7,0,19.3,8.4,19.3,19.2c0,10.8-8.6,19.2-19.3,19.2
		C241.9,132.3,233.4,124,233.4,113.1z M261,113.1c0-5.2-3.6-8.6-8.4-8.6c-4.7,0-8.4,3.4-8.4,8.6c0,5.2,3.6,8.6,8.4,8.6
		C257.3,121.7,261,118.3,261,113.1z"/>
	<path class="st1" d="M315.3,82.3v47.2c0,1.2-0.7,1.8-1.8,1.8h-7.3c-1.2,0-1.8-0.7-1.8-1.8v-1.6c-2.4,2.8-6,4.4-10.8,4.4
		c-9.5,0-17.4-8.4-17.4-19.2c0-10.8,7.8-19.2,17.4-19.2c4.9,0,8.4,1.6,10.8,4.4V82.3c0-1.2,0.7-1.8,1.8-1.8h7.3
		C314.7,80.4,315.3,81.1,315.3,82.3z M304.4,113.1c0-5.4-3.6-8.9-8.6-8.9s-8.6,3.4-8.6,8.9c0,5.4,3.6,8.9,8.6,8.9
		S304.4,118.6,304.4,113.1z"/>
	<path class="st1" d="M323.3,88.8v-6.5c0-1.2,0.7-1.8,1.8-1.8h7.3c1.2,0,1.8,0.7,1.8,1.8v6.5c0,1.2-0.7,1.8-1.8,1.8h-7.3
		C324,90.6,323.3,90,323.3,88.8z M323.3,129.5V96.8c0-1.2,0.7-1.8,1.8-1.8h7.3c1.2,0,1.8,0.7,1.8,1.8v32.7c0,1.2-0.7,1.8-1.8,1.8
		h-7.3C324,131.3,323.3,130.7,323.3,129.5z"/>
	<path class="st1" d="M377.7,95c1.2,0,1.8,0.7,1.8,1.8v32.7c0,12.2-9.8,17.4-18.7,17.4c-8.9,0-17.2-4.2-18.3-12.9
		c-0.1-1.2,0.7-1.9,1.8-1.9h7.3c1.1,0,1.6,0.6,2,1.6c0.8,2.2,3.2,3.6,7.2,3.6c4.9,0,8.1-2.6,8.1-7.8v-3.3c-2.4,2.9-6.1,4.7-11.1,4.7
		c-9.5,0-17.4-8.4-17.4-18.5c0-10.1,7.8-18.5,17.4-18.5c5.1,0,8.7,1.8,11.1,4.7v-1.8c0-1.2,0.7-1.8,1.8-1.8L377.7,95L377.7,95z
		 M368.9,112.4c0-5-3.6-8.4-8.8-8.4c-5.2,0-8.8,3.4-8.8,8.4c0,5,3.6,8.4,8.8,8.4C365.2,120.8,368.9,117.4,368.9,112.4z"/>
	<path class="st1" d="M410.5,95h7.8c1.3,0,2,0.7,1.5,2l-15.7,47.4c-0.3,1-1.1,1.5-2.1,1.5h-7.8c-1.3,0-2-0.7-1.5-2l4.4-13.1
		l-12.8-33.6c-0.4-1.2,0.1-2.1,1.5-2.1h7.8c1,0,1.7,0.5,2,1.5l6.9,19.3l6-19.2C408.7,95.5,409.5,95,410.5,95z"/>
</g>
</svg>
